# xmcd
#
# Track frame offsets:
# 150
# 15558
# 36255
# 54928
# 73063
# 95575
# 120215
# 137693
# 166393
# 170005
# 195035
#
# Disc length: 2785 seconds
#
# Revision: 0
# Processed by: cddbd v1.4PL0 Copyright (c) Steve Scherf et al.
# Submitted via: Audion 3.0.2 (http://www.panic.com/audion/)
#
DISCID=870adf0b
DTITLE=Santino De Bartolo - Santino De Bartolo
DYEAR=1900
DGENRE=
TTITLE0=Come va
TTITLE1=Sotto le stelle di luglio
TTITLE2=Ma che sarà di noi
TTITLE3=Raccontami
TTITLE4=Canzone del ripensamento
TTITLE5=L'isola è lontana
TTITLE6=IL pescatore
TTITLE7=Incubo
TTITLE8=Intro
TTITLE9=Canzone del rimpianto
TTITLE10=Il valzer della cicala
EXTD=
EXTT0=
EXTT1=
EXTT2=
EXTT3=
EXTT4=
EXTT5=
EXTT6=
EXTT7=
EXTT8=
EXTT9=
EXTT10=
PLAYORDER=
